<?xml version="1.0" standalone="no"?>
<!DOCTYPE svg PUBLIC "-//W3C//DTD SVG 20010904//EN"
 "http://www.w3.org/TR/2001/REC-SVG-20010904/DTD/svg10.dtd">
<svg version="1.0" xmlns="http://www.w3.org/2000/svg"
 width="703.000000pt" height="703.000000pt" viewBox="0 0 703.000000 703.000000"
 preserveAspectRatio="xMidYMid meet">
<metadata>
Created by potrace 1.14, written by Peter Selinger 2001-2017
</metadata>
<g transform="translate(0.000000,703.000000) scale(0.100000,-0.100000)"
fill="#000000" stroke="none">
<path d="M10 5840 c-10 -7 -10 -1392 0 -1405 5 -7 249 -9 702 -8 381 1 696 2
699 2 4 1 6 318 6 706 l0 705 -46 0 c-346 4 -1355 4 -1361 0z m1098 -367 l-3
-98 -100 -2 c-55 0 -112 -2 -127 -2 l-28 -1 0 -312 c0 -172 0 -332 0 -355 l0
-43 -140 0 c-138 0 -140 0 -140 23 -1 12 -1 172 -1 355 -1 303 -2 332 -17 333
-9 0 -67 1 -129 1 l-111 1 -4 61 c-2 33 -2 78 0 99 l3 37 400 0 400 0 -3 -97z"/>
<path d="M4083 5602 l-93 -3 0 -483 0 -483 137 1 138 1 0 252 c0 138 3 255 7
258 12 13 157 18 171 7 11 -9 14 -65 14 -264 l0 -253 139 0 139 0 -1 245 c-2
444 -3 450 -91 486 -20 9 -68 17 -106 19 -100 4 -180 -24 -248 -88 l-26 -25 1
167 1 166 -45 0 c-25 0 -87 -1 -137 -3z"/>
<path d="M1935 5373 c-38 -8 -95 -26 -125 -41 -44 -22 -59 -36 -77 -72 -35
-71 -56 -167 -56 -265 -1 -196 69 -309 226 -361 79 -26 287 -23 387 6 79 23
91 31 86 59 -11 55 -18 107 -18 123 1 15 -7 17 -61 13 -76 -5 -203 -6 -237 -1
-14 2 -31 4 -38 5 -23 2 -62 49 -62 76 0 24 2 25 73 26 87 0 349 6 360 8 10 1
-1 170 -14 231 -11 50 -47 117 -76 140 -22 19 -85 49 -116 56 -51 12 -187 10
-252 -3z m158 -172 c26 -10 47 -55 47 -101 l0 -28 -94 -1 -94 -1 4 52 c3 38
11 58 25 71 23 19 74 22 112 8z"/>
<path d="M2758 5385 c-2 -2 -25 -5 -53 -8 -27 -3 -81 -11 -119 -17 l-68 -12 6
-86 c4 -47 10 -90 13 -94 3 -5 27 -7 55 -4 27 3 99 8 160 12 126 8 128 7 128
-67 l0 -46 -68 -2 c-37 -1 -76 -3 -87 -5 -11 -2 -42 -7 -70 -11 -111 -16 -194
-93 -196 -185 -2 -64 1 -81 19 -120 34 -75 106 -120 202 -124 83 -4 124 11
180 63 l49 46 6 -30 c14 -65 6 -61 130 -62 l114 -1 -3 282 c-2 163 -8 295 -15
315 -18 59 -54 100 -109 128 -46 23 -68 26 -162 28 -60 1 -111 1 -112 0z m122
-516 c0 -56 -1 -59 -27 -66 -45 -11 -93 -7 -112 11 -19 17 -21 80 -4 96 10 10
44 16 101 16 l42 1 0 -58z"/>
<path d="M3531 5374 c-96 -16 -159 -40 -194 -72 -62 -58 -102 -289 -76 -431
23 -120 96 -207 199 -239 86 -26 274 -22 393 8 48 13 48 13 43 49 -3 20 -8 59
-11 87 l-6 50 -105 -2 c-212 -5 -259 50 -230 269 11 86 14 87 182 87 108 0
144 3 145 13 0 6 2 21 5 32 2 11 6 48 10 81 l6 61 -38 8 c-68 13 -246 13 -323
-1z"/>
<path d="M5150 5383 c-70 -9 -140 -28 -187 -50 -44 -20 -56 -32 -78 -76 -57
-118 -71 -329 -29 -441 39 -100 132 -172 252 -194 134 -24 412 16 420 61 2 10
-2 49 -8 87 l-12 70 -71 -5 c-232 -18 -303 -1 -321 78 -6 24 -4 27 21 27 435
4 413 3 414 25 5 81 -10 200 -32 259 -38 102 -125 155 -262 160 -45 1 -93 1
-107 -1z m115 -198 c14 -13 26 -32 26 -42 5 -75 14 -68 -88 -71 l-93 -3 0 40
c0 52 14 88 37 94 50 13 94 7 118 -18z"/>
<path d="M6038 5370 c-21 -11 -58 -41 -83 -65 l-44 -45 -16 55 c-9 30 -19 55
-23 56 -36 4 -214 1 -218 -4 -5 -5 -9 -643 -5 -724 1 -9 34 -12 124 -12 67 1
129 3 137 5 13 3 15 39 14 248 l-1 244 36 6 c20 3 73 6 118 6 94 0 89 -5 98
105 3 39 8 79 10 90 7 32 -8 44 -61 50 -37 3 -58 0 -86 -15z"/>
<path d="M3 3531 l0 -709 706 1 706 2 1 708 1 707 -707 0 -708 0 1 -709z
m1085 29 c-1 -264 -4 -481 -7 -481 -27 -5 -213 -4 -217 2 -2 4 -6 24 -9 45
-10 66 -12 67 -52 23 -48 -54 -111 -82 -188 -84 -133 -5 -229 69 -266 205 -31
117 -14 322 35 416 34 65 45 78 83 97 58 30 259 51 334 35 11 -2 14 16 15 97
1 55 2 105 3 110 0 6 52 11 123 13 68 2 125 5 127 8 16 16 19 -62 19 -486z"/>
<path d="M658 3636 c-30 -15 -46 -92 -43 -207 2 -99 19 -134 70 -148 29 -8 90
-6 120 3 11 4 15 340 4 350 -11 11 -129 13 -151 2z"/>
<path d="M1773 4147 c-105 -31 -123 -171 -30 -227 106 -65 240 41 193 153 -24
59 -99 93 -163 74z"/>
<path d="M3055 4148 c-91 -25 -128 -134 -68 -200 75 -83 214 -48 233 59 16 89
-74 166 -165 141z"/>
<path d="M5554 4094 c3 -11 23 -77 45 -149 32 -108 142 -463 323 -1049 l30
-99 132 132 131 131 215 -215 215 -215 190 190 190 190 -215 215 -215 215 130
130 c71 71 127 131 125 134 -3 2 -21 8 -40 14 -103 29 -1244 384 -1253 389 -5
3 -7 -3 -3 -13z"/>
<path d="M4850 4040 l-105 -5 0 -480 0 -480 138 -2 137 -1 0 488 0 489 -32 -2
c-18 -1 -80 -4 -138 -7z"/>
<path d="M3539 3992 c-36 -3 -37 -5 -74 -93 -33 -79 -41 -89 -64 -90 -14 -1
-30 -2 -36 -4 -5 -1 -20 -3 -32 -3 -22 -2 -23 -6 -23 -76 l0 -74 38 0 c20 0
47 -1 60 -1 l22 -1 0 -219 c0 -136 4 -231 11 -252 35 -104 153 -140 350 -108
64 11 69 14 70 38 2 35 2 37 -6 102 l-6 56 -61 1 c-34 0 -66 6 -72 12 -14 14
-15 370 -1 371 5 1 43 1 83 0 72 -1 72 -1 73 27 2 44 -2 126 -6 131 -3 2 -39
4 -82 5 l-78 1 1 92 0 91 -65 -1 c-36 -1 -82 -3 -102 -5z"/>
<path d="M2417 3824 c-1 -1 -33 -4 -72 -7 -38 -4 -83 -9 -100 -12 -120 -24
-187 -173 -181 -400 3 -124 19 -180 67 -238 83 -101 255 -115 365 -31 24 19
46 34 48 34 6 0 -3 -130 -10 -153 -4 -12 -14 -27 -23 -33 -18 -14 -229 -16
-304 -5 -26 5 -49 5 -52 2 -4 -8 -14 -71 -19 -133 -5 -51 -3 -53 94 -79 63
-17 312 -17 379 0 88 22 160 114 195 246 20 79 24 775 4 775 -7 0 -43 5 -80
10 -117 17 -165 22 -237 24 -40 1 -73 1 -74 0z m119 -195 c3 -6 7 -81 7 -166
0 -172 2 -167 -71 -178 -56 -8 -97 8 -112 44 -26 64 -15 258 17 293 12 14 32
18 84 18 39 0 71 -5 75 -11z"/>
<path d="M4225 3823 c-16 -2 -79 -10 -138 -19 l-108 -17 6 -76 c9 -119 4 -113
93 -106 183 15 245 16 254 3 13 -21 9 -98 -4 -103 -7 -2 -56 -6 -109 -9 -52
-3 -119 -13 -147 -21 -97 -29 -155 -105 -154 -200 1 -131 91 -216 232 -218 85
-2 128 14 178 65 l41 41 11 -45 12 -45 114 -1 114 0 -3 286 c-3 270 -4 290
-25 335 -41 92 -110 128 -246 131 -50 1 -104 1 -121 -1z m116 -467 c0 -6 1
-30 3 -54 2 -33 -2 -46 -15 -53 -30 -16 -97 -18 -117 -3 -40 28 -33 110 10
116 57 8 118 5 119 -6z"/>
<path d="M1687 3810 c-9 -4 -12 -91 -12 -370 l0 -365 138 -2 137 -2 0 372 0
372 -125 0 c-69 0 -131 -2 -138 -5z"/>
<path d="M2974 3812 c-22 -3 -22 -4 -22 -367 l-1 -365 22 -4 c12 -3 75 -4 140
-4 l117 2 -2 369 -3 369 -115 2 c-63 0 -125 0 -136 -2z"/>
<path d="M6 2631 c-2 -3 -4 -322 -4 -708 l0 -703 708 0 707 0 -1 708 -1 707
-703 1 c-386 1 -704 -1 -706 -5z m899 -242 c6 -7 263 -827 271 -868 3 -14 7
-27 9 -31 3 -4 -262 -6 -286 -1 -4 0 -16 44 -28 96 -13 52 -25 96 -29 96 -4 1
-64 2 -135 3 l-127 1 -10 -35 c-5 -19 -15 -61 -21 -93 -7 -34 -18 -61 -28 -66
-9 -4 -74 -7 -146 -7 -143 1 -139 -1 -115 66 7 21 81 250 232 720 17 52 34
102 38 110 7 13 37 15 188 15 100 0 183 -3 187 -6z"/>
<path d="M706 2189 c-13 -37 -86 -309 -86 -319 0 -6 36 -10 96 -10 94 0 95 0
88 23 -4 12 -24 87 -45 166 -39 148 -45 164 -53 140z"/>
<path d="M3827 2259 c-62 -10 -125 -41 -179 -88 l-43 -39 -15 57 -15 56 -113
2 -112 2 0 -370 c0 -344 1 -369 18 -370 22 -1 209 -1 240 0 l22 1 0 254 c0
233 1 254 18 261 31 12 137 16 152 6 13 -9 15 -50 15 -266 l0 -255 23 -1 c29
-1 228 -1 245 0 10 1 13 61 11 304 -2 326 -7 372 -51 406 -45 36 -134 52 -216
40z"/>
<path d="M4598 2266 c-1 -2 -33 -6 -70 -9 -85 -7 -183 -34 -229 -63 -58 -36
-100 -159 -105 -311 -9 -272 106 -395 369 -394 50 0 101 2 112 4 11 3 40 8 65
13 102 18 102 18 95 72 -3 26 -8 56 -10 67 -2 11 -4 28 -4 38 -1 15 -14 17
-118 17 -134 0 -175 13 -206 67 -20 34 -25 115 -13 200 13 88 13 88 180 88 94
-1 146 3 147 10 0 5 2 19 4 30 3 11 7 45 11 75 3 30 8 58 10 61 7 12 -25 19
-119 25 -51 3 -97 7 -104 9 -6 2 -13 2 -15 1z"/>
<path d="M1949 2256 c-2 -3 -26 -7 -52 -10 -61 -8 -120 -38 -144 -73 -51 -76
-80 -195 -77 -323 5 -217 92 -328 260 -331 70 -2 126 16 179 56 25 19 45 32
46 27 6 -38 -8 -163 -19 -174 -24 -24 -241 -29 -334 -9 -43 10 -43 9 -54 -110
l-6 -76 58 -16 c87 -23 133 -29 238 -29 94 0 194 15 230 34 24 13 75 71 103
117 52 87 57 129 58 518 l1 363 -51 9 c-27 6 -68 13 -90 16 -50 8 -340 17
-346 11z m187 -183 c20 -4 21 -10 20 -171 l-1 -166 -25 -7 c-35 -10 -112 -10
-127 -1 -29 18 -41 66 -41 155 0 93 17 174 40 189 13 8 96 9 134 1z"/>
<path d="M2773 2245 c-93 -20 -159 -59 -182 -109 -60 -122 -74 -329 -31 -440
40 -106 124 -174 241 -196 72 -14 224 -11 307 7 132 27 133 28 118 125 l-11
73 -155 1 c-90 0 -166 5 -181 11 -39 17 -59 41 -59 73 l0 28 210 0 c116 1 215
4 220 7 12 7 5 145 -12 222 -23 107 -92 181 -188 202 -68 15 -200 13 -277 -4z
m168 -165 c26 0 59 -56 59 -100 l0 -35 -68 2 c-37 1 -80 2 -95 2 l-29 1 7 53
c4 28 12 57 17 64 10 13 54 22 76 16 8 -1 22 -3 33 -3z"/>
<path d="M4950 1991 c48 -141 103 -299 120 -351 18 -52 37 -99 41 -105 5 -5
21 -10 37 -11 15 -1 37 -2 49 -3 l21 -1 -20 -48 -20 -48 -104 1 -103 1 -6 -51
c-12 -95 -13 -135 -1 -142 20 -13 240 -12 289 1 106 29 168 131 261 430 148
473 176 564 176 573 0 6 -58 10 -144 11 l-144 1 -6 -32 c-7 -35 -8 -41 -30
-144 -9 -40 -18 -87 -21 -105 -3 -18 -8 -41 -11 -50 -3 -9 -7 -27 -9 -40 -3
-13 -7 -34 -10 -48 -3 -14 -7 -35 -10 -48 -13 -71 -20 -56 -84 199 l-66 264
-146 1 -147 1 88 -256z"/>
</g>
</svg>
